# This file uses centimeters as units for non-parametric coordinates.

mtllib puertaG.mtl
g default
v -2.187399 -4.512130 -0.005750
v 2.213370 -4.512130 -0.005750
v 2.213370 0.110545 -0.005750
v -2.187399 0.110545 -0.005750
v -2.187399 -4.512130 0.054250
v 2.213370 -4.512130 0.054250
v 2.213370 0.110545 0.054250
v -2.187399 0.110545 0.054250
v -2.099384 -4.399862 0.054250
v -2.099384 -0.001723 0.054250
v 2.125354 -0.001723 0.054250
v 2.125354 -4.399862 0.054250
v -0.047745 -0.001723 0.054250
v 0.073716 -0.001723 0.054250
v 0.073716 -4.399862 0.054250
v -0.047745 -4.399862 0.054250
v -2.099384 -2.264014 0.054250
v -2.099384 -2.137568 0.054250
v 2.125354 -2.137568 0.054250
v 2.125354 -2.264014 0.054250
v 0.073716 -2.264014 0.054250
v 0.073716 -2.137568 0.054250
v -0.047745 -2.137568 0.054250
v -0.047745 -2.264014 0.054250
v 2.125354 -2.137568 0.034250
v 2.125354 -0.001723 0.034250
v 0.073716 -0.001723 0.034250
v 0.073716 -2.137568 0.034250
v 0.073716 -4.399862 0.034250
v 2.125354 -4.399862 0.034250
v 2.125354 -2.264014 0.034250
v 0.073716 -2.264014 0.034250
v -2.099384 -2.264014 0.034250
v -2.099384 -4.399862 0.034250
v -0.047745 -4.399862 0.034250
v -0.047745 -2.264014 0.034250
v -0.047745 -0.001723 0.034250
v -2.099384 -0.001723 0.034250
v -2.099384 -2.137568 0.034250
v -0.047745 -2.137568 0.034250
v 1.099535 -1.069646 0.052443
v 1.099535 -3.331940 0.052443
v -1.073564 -3.331940 0.052443
v -1.073564 -1.069646 0.052443
vt 0.344499 0.284051
vt 0.002000 0.284051
vt 0.008850 0.277201
vt 0.168523 0.277201
vt 0.177976 0.277201
vt 0.337649 0.277201
vt 0.002000 0.002000
vt 0.008850 0.008850
vt 0.008850 0.139168
vt 0.008850 0.146883
vt 0.344499 0.002000
vt 0.337649 0.008850
vt 0.177976 0.008850
vt 0.168523 0.008850
vt 0.337649 0.146883
vt 0.337649 0.139168
vt 0.343476 0.295067
vt 0.685975 0.295067
vt 0.685975 0.303287
vt 0.343476 0.303287
vt 0.172738 0.667276
vt 0.454789 0.667276
vt 0.454789 0.675496
vt 0.172738 0.675496
vt 0.526254 0.002000
vt 0.868753 0.002000
vt 0.868753 0.010220
vt 0.526254 0.010220
vt 0.808304 0.029456
vt 0.526254 0.029456
vt 0.526254 0.021236
vt 0.808304 0.021236
vt 0.168523 0.139168
vt 0.177976 0.139168
vt 0.177976 0.146883
vt 0.168523 0.146883
vt 0.343427 0.700268
vt 0.473745 0.700268
vt 0.473745 0.703008
vt 0.343427 0.703008
vt 0.161673 0.722151
vt 0.002000 0.722151
vt 0.002000 0.719411
vt 0.161673 0.719411
vt 0.656572 0.056969
vt 0.526254 0.056969
vt 0.526254 0.054229
vt 0.656572 0.054229
vt 0.332411 0.703008
vt 0.172738 0.703008
vt 0.172738 0.700268
vt 0.332411 0.700268
vt 0.332412 0.689252
vt 0.172738 0.689252
vt 0.172738 0.686512
vt 0.332412 0.686512
vt 0.343428 0.686512
vt 0.473746 0.686512
vt 0.473746 0.689252
vt 0.343428 0.689252
vt 0.625479 0.670016
vt 0.465806 0.670016
vt 0.465806 0.667276
vt 0.625479 0.667276
vt 0.132318 0.735907
vt 0.002000 0.735907
vt 0.002000 0.733167
vt 0.132318 0.733167
vt 0.766814 0.670016
vt 0.636496 0.670016
vt 0.636496 0.667276
vt 0.766814 0.667276
vt 0.685927 0.043212
vt 0.526254 0.043212
vt 0.526254 0.040472
vt 0.685927 0.040472
vt 0.172738 0.714024
vt 0.303056 0.714024
vt 0.303056 0.716764
vt 0.172738 0.716764
vt 0.568294 0.317043
vt 0.408621 0.317043
vt 0.408621 0.314303
vt 0.568294 0.314303
vt 0.978994 0.023976
vt 0.819320 0.023976
vt 0.819320 0.021236
vt 0.978994 0.021236
vt 0.998000 0.297807
vt 0.867682 0.297807
vt 0.867682 0.295067
vt 0.998000 0.295067
vt 0.856665 0.297807
vt 0.696992 0.297807
vt 0.696992 0.295067
vt 0.856665 0.295067
vt 0.408621 0.328059
vt 0.538939 0.328059
vt 0.538939 0.330799
vt 0.408621 0.330799
vt 0.172738 0.425425
vt 0.172738 0.295067
vt 0.252599 0.360246
vt 0.332460 0.295067
vt 0.332460 0.425425
vt 0.161722 0.295067
vt 0.161722 0.425425
vt 0.081861 0.360246
vt 0.002000 0.425425
vt 0.002000 0.295067
vt 0.515237 0.002000
vt 0.515237 0.132358
vt 0.435376 0.067179
vt 0.355516 0.132358
vt 0.355516 0.002000
vt 0.002000 0.566799
vt 0.002000 0.436441
vt 0.081861 0.501620
vt 0.161722 0.436441
vt 0.161722 0.566799
vn 0.000000 0.000000 1.000000
vn 0.000000 0.000000 1.000000
vn 0.000000 0.000000 1.000000
vn 0.000000 0.000000 1.000000
vn 0.000000 0.000000 1.000000
vn 0.000000 0.000000 1.000000
vn 0.000000 0.000000 1.000000
vn 0.000000 0.000000 1.000000
vn 0.000000 0.000000 1.000000
vn 0.000000 0.000000 1.000000
vn 0.000000 0.000000 1.000000
vn 0.000000 0.000000 1.000000
vn 0.000000 0.000000 1.000000
vn 0.000000 0.000000 1.000000
vn 0.000000 0.000000 1.000000
vn 0.000000 0.000000 1.000000
vn 0.000000 0.000000 1.000000
vn 0.000000 0.000000 1.000000
vn 0.000000 0.000000 1.000000
vn 0.000000 0.000000 1.000000
vn 0.000000 0.000000 1.000000
vn 0.000000 0.000000 1.000000
vn 0.000000 0.000000 1.000000
vn 0.000000 0.000000 1.000000
vn 0.000000 0.000000 1.000000
vn 0.000000 0.000000 1.000000
vn 0.000000 0.000000 1.000000
vn 0.000000 0.000000 1.000000
vn 0.000000 0.000000 1.000000
vn 0.000000 0.000000 1.000000
vn 0.000000 0.000000 1.000000
vn 0.000000 0.000000 1.000000
vn 0.000000 0.000000 1.000000
vn 0.000000 0.000000 1.000000
vn 0.000000 0.000000 1.000000
vn 0.000000 0.000000 1.000000
vn 0.000000 0.000000 1.000000
vn 0.000000 0.000000 1.000000
vn 0.000000 0.000000 1.000000
vn 0.000000 0.000000 1.000000
vn 0.000000 0.000000 1.000000
vn 0.000000 0.000000 1.000000
vn 0.000000 0.000000 1.000000
vn 0.000000 0.000000 1.000000
vn 0.000000 0.000000 1.000000
vn 0.000000 0.000000 1.000000
vn 0.000000 0.000000 1.000000
vn 0.000000 0.000000 1.000000
vn 0.000000 -1.000000 0.000000
vn 0.000000 -1.000000 0.000000
vn 0.000000 -1.000000 0.000000
vn 0.000000 -1.000000 0.000000
vn 0.000000 -1.000000 0.000000
vn 0.000000 -1.000000 0.000000
vn 1.000000 0.000000 0.000000
vn 1.000000 0.000000 0.000000
vn 1.000000 0.000000 0.000000
vn 1.000000 0.000000 0.000000
vn 1.000000 0.000000 0.000000
vn 1.000000 0.000000 0.000000
vn 0.000000 1.000000 0.000000
vn 0.000000 1.000000 0.000000
vn 0.000000 1.000000 0.000000
vn 0.000000 1.000000 0.000000
vn 0.000000 1.000000 0.000000
vn 0.000000 1.000000 0.000000
vn -1.000000 0.000000 -0.000000
vn -1.000000 0.000000 -0.000000
vn -1.000000 0.000000 -0.000000
vn -1.000000 0.000000 -0.000000
vn -1.000000 0.000000 -0.000000
vn -1.000000 0.000000 -0.000000
vn 0.000000 0.000000 1.000000
vn 0.000000 0.000000 1.000000
vn 0.000000 0.000000 1.000000
vn 0.000000 0.000000 1.000000
vn 0.000000 0.000000 1.000000
vn 0.000000 0.000000 1.000000
vn 0.000000 0.000000 1.000000
vn 0.000000 0.000000 1.000000
vn 0.000000 0.000000 1.000000
vn 0.000000 0.000000 1.000000
vn 0.000000 0.000000 1.000000
vn 0.000000 0.000000 1.000000
vn 0.000000 0.000000 1.000000
vn 0.000000 0.000000 1.000000
vn 0.000000 0.000000 1.000000
vn 0.000000 0.000000 1.000000
vn 0.000000 0.000000 1.000000
vn 0.000000 0.000000 1.000000
vn 0.000000 0.000000 1.000000
vn 0.000000 0.000000 1.000000
vn 0.000000 0.000000 1.000000
vn 0.000000 0.000000 1.000000
vn 0.000000 0.000000 1.000000
vn 0.000000 0.000000 1.000000
vn 0.000000 0.000000 1.000000
vn 0.000000 0.000000 1.000000
vn 0.000000 0.000000 1.000000
vn 0.000000 0.000000 1.000000
vn 0.000000 0.000000 1.000000
vn 0.000000 0.000000 1.000000
vn -1.000000 0.000000 -0.000000
vn -1.000000 0.000000 -0.000000
vn -1.000000 0.000000 -0.000000
vn -1.000000 0.000000 -0.000000
vn -1.000000 0.000000 -0.000000
vn -1.000000 0.000000 -0.000000
vn 0.000000 -1.000000 0.000000
vn 0.000000 -1.000000 0.000000
vn 0.000000 -1.000000 0.000000
vn 0.000000 -1.000000 0.000000
vn 0.000000 -1.000000 0.000000
vn 0.000000 -1.000000 0.000000
vn 1.000000 -0.000000 0.000000
vn 1.000000 -0.000000 0.000000
vn 1.000000 -0.000000 0.000000
vn 1.000000 -0.000000 0.000000
vn 1.000000 -0.000000 0.000000
vn 1.000000 -0.000000 0.000000
vn 0.000000 1.000000 0.000000
vn 0.000000 1.000000 0.000000
vn 0.000000 1.000000 0.000000
vn 0.000000 1.000000 0.000000
vn 0.000000 1.000000 0.000000
vn 0.000000 1.000000 0.000000
vn 0.000000 1.000000 0.000000
vn 0.000000 1.000000 0.000000
vn 0.000000 1.000000 0.000000
vn 0.000000 1.000000 0.000000
vn 0.000000 1.000000 0.000000
vn 0.000000 1.000000 0.000000
vn -1.000000 0.000000 -0.000000
vn -1.000000 0.000000 -0.000000
vn -1.000000 0.000000 -0.000000
vn -1.000000 0.000000 -0.000000
vn -1.000000 0.000000 -0.000000
vn -1.000000 0.000000 -0.000000
vn 0.000000 -1.000000 0.000000
vn 0.000000 -1.000000 0.000000
vn 0.000000 -1.000000 0.000000
vn 0.000000 -1.000000 0.000000
vn 0.000000 -1.000000 0.000000
vn 0.000000 -1.000000 0.000000
vn 1.000000 -0.000000 0.000000
vn 1.000000 -0.000000 0.000000
vn 1.000000 -0.000000 0.000000
vn 1.000000 -0.000000 0.000000
vn 1.000000 -0.000000 0.000000
vn 1.000000 -0.000000 0.000000
vn 1.000000 0.000000 0.000000
vn 1.000000 0.000000 0.000000
vn 1.000000 0.000000 0.000000
vn 1.000000 0.000000 0.000000
vn 1.000000 0.000000 0.000000
vn 1.000000 0.000000 0.000000
vn 0.000000 1.000000 0.000000
vn 0.000000 1.000000 0.000000
vn 0.000000 1.000000 0.000000
vn 0.000000 1.000000 0.000000
vn 0.000000 1.000000 0.000000
vn 0.000000 1.000000 0.000000
vn -1.000000 0.000000 -0.000000
vn -1.000000 0.000000 -0.000000
vn -1.000000 0.000000 -0.000000
vn -1.000000 0.000000 -0.000000
vn -1.000000 0.000000 -0.000000
vn -1.000000 0.000000 -0.000000
vn 0.000000 -1.000000 0.000000
vn 0.000000 -1.000000 0.000000
vn 0.000000 -1.000000 0.000000
vn 0.000000 -1.000000 0.000000
vn 0.000000 -1.000000 0.000000
vn 0.000000 -1.000000 0.000000
vn 0.000000 -1.000000 0.000000
vn 0.000000 -1.000000 0.000000
vn 0.000000 -1.000000 0.000000
vn 0.000000 -1.000000 0.000000
vn 0.000000 -1.000000 0.000000
vn 0.000000 -1.000000 0.000000
vn 1.000000 0.000000 0.000000
vn 1.000000 0.000000 0.000000
vn 1.000000 0.000000 0.000000
vn 1.000000 0.000000 0.000000
vn 1.000000 0.000000 0.000000
vn 1.000000 0.000000 0.000000
vn 0.000000 1.000000 0.000000
vn 0.000000 1.000000 0.000000
vn 0.000000 1.000000 0.000000
vn 0.000000 1.000000 0.000000
vn 0.000000 1.000000 0.000000
vn 0.000000 1.000000 0.000000
vn -1.000000 0.000000 -0.000000
vn -1.000000 0.000000 -0.000000
vn -1.000000 0.000000 -0.000000
vn -1.000000 0.000000 -0.000000
vn -1.000000 0.000000 -0.000000
vn -1.000000 0.000000 -0.000000
vn 0.017732 0.000000 0.999843
vn 0.017732 0.000000 0.999843
vn 0.017732 0.000000 0.999843
vn 0.000000 0.017033 0.999855
vn 0.000000 0.017033 0.999855
vn 0.000000 0.017033 0.999855
vn -0.017732 0.000000 0.999843
vn -0.017732 0.000000 0.999843
vn -0.017732 0.000000 0.999843
vn 0.000000 -0.017033 0.999855
vn 0.000000 -0.017033 0.999855
vn 0.000000 -0.017033 0.999855
vn -0.017732 0.000000 0.999843
vn -0.017732 0.000000 0.999843
vn -0.017732 0.000000 0.999843
vn 0.000000 -0.017033 0.999855
vn 0.000000 -0.017033 0.999855
vn 0.000000 -0.017033 0.999855
vn 0.017732 0.000000 0.999843
vn 0.017732 0.000000 0.999843
vn 0.017732 0.000000 0.999843
vn 0.000000 0.017033 0.999855
vn 0.000000 0.017033 0.999855
vn 0.000000 0.017033 0.999855
vn -0.017732 0.000000 0.999843
vn -0.017732 0.000000 0.999843
vn -0.017732 0.000000 0.999843
vn 0.000000 -0.017033 0.999855
vn 0.000000 -0.017033 0.999855
vn 0.000000 -0.017033 0.999855
vn 0.017732 0.000000 0.999843
vn 0.017732 0.000000 0.999843
vn 0.017732 0.000000 0.999843
vn 0.000000 0.017033 0.999855
vn 0.000000 0.017033 0.999855
vn 0.000000 0.017033 0.999855
vn 0.017732 0.000000 0.999843
vn 0.017732 0.000000 0.999843
vn 0.017732 0.000000 0.999843
vn 0.000000 0.017033 0.999855
vn 0.000000 0.017033 0.999855
vn 0.000000 0.017033 0.999855
vn -0.017732 0.000000 0.999843
vn -0.017732 0.000000 0.999843
vn -0.017732 0.000000 0.999843
vn 0.000000 -0.017033 0.999855
vn 0.000000 -0.017033 0.999855
vn 0.000000 -0.017033 0.999855
s off
g polySurface6 puertaG:stolarija_grede
usemtl lambert5SG
f 5/1/1 6/2/2 12/3/3
f 5/1/4 12/3/5 15/4/6
f 5/1/7 15/4/8 16/5/9
f 5/1/10 16/5/11 9/6/12
f 6/2/13 7/7/14 11/8/15
f 6/2/16 11/8/17 19/9/18
f 6/2/19 19/9/20 20/10/21
f 6/2/22 20/10/23 12/3/24
f 7/7/25 8/11/26 10/12/27
f 7/7/28 10/12/29 13/13/30
f 7/7/31 13/13/32 14/14/33
f 7/7/34 14/14/35 11/8/36
f 8/11/37 5/1/38 9/6/39
f 8/11/40 9/6/41 17/15/42
f 8/11/43 17/15/44 18/16/45
f 8/11/46 18/16/47 10/12/48
f 1/17/49 2/18/50 6/19/51
f 6/19/52 5/20/53 1/17/54
f 2/21/55 3/22/56 7/23/57
f 7/23/58 6/24/59 2/21/60
f 3/25/61 4/26/62 8/27/63
f 8/27/64 7/28/65 3/25/66
f 4/29/67 1/30/68 5/31/69
f 5/31/70 8/32/71 4/29/72
f 22/33/73 23/34/74 24/35/75
f 24/35/76 21/36/77 22/33/78
f 19/9/79 22/33/80 21/36/81
f 21/36/82 20/10/83 19/9/84
f 17/15/85 24/35/86 23/34/87
f 23/34/88 18/16/89 17/15/90
f 14/14/91 13/13/92 23/34/93
f 23/34/94 22/33/95 14/14/96
f 16/5/97 15/4/98 21/36/99
f 21/36/100 24/35/101 16/5/102
f 19/37/103 11/38/104 26/39/105
f 26/39/106 25/40/107 19/37/108
f 11/41/109 14/42/110 27/43/111
f 27/43/112 26/44/113 11/41/114
f 14/45/115 22/46/116 28/47/117
f 28/47/118 27/48/119 14/45/120
f 22/49/121 19/50/122 25/51/123
f 25/51/124 28/52/125 22/49/126
f 15/53/127 12/54/128 30/55/129
f 30/55/130 29/56/131 15/53/132
f 12/57/133 20/58/134 31/59/135
f 31/59/136 30/60/137 12/57/138
f 20/61/139 21/62/140 32/63/141
f 32/63/142 31/64/143 20/61/144
f 21/65/145 15/66/146 29/67/147
f 29/67/148 32/68/149 21/65/150
f 17/69/151 9/70/152 34/71/153
f 34/71/154 33/72/155 17/69/156
f 9/73/157 16/74/158 35/75/159
f 35/75/160 34/76/161 9/73/162
f 16/77/163 24/78/164 36/79/165
f 36/79/166 35/80/167 16/77/168
f 24/81/169 17/82/170 33/83/171
f 33/83/172 36/84/173 24/81/174
f 13/85/175 10/86/176 38/87/177
f 38/87/178 37/88/179 13/85/180
f 10/89/181 18/90/182 39/91/183
f 39/91/184 38/92/185 10/89/186
f 18/93/187 23/94/188 40/95/189
f 40/95/190 39/96/191 18/93/192
f 23/97/193 13/98/194 37/99/195
f 37/99/196 40/100/197 23/97/198
f 25/101/199 26/102/200 41/103/201
f 26/102/202 27/104/203 41/103/204
f 27/104/205 28/105/206 41/103/207
f 28/105/208 25/101/209 41/103/210
f 32/106/211 29/107/212 42/108/213
f 29/107/214 30/109/215 42/108/216
f 30/109/217 31/110/218 42/108/219
f 31/110/220 32/106/221 42/108/222
f 33/111/223 34/112/224 43/113/225
f 34/112/226 35/114/227 43/113/228
f 35/114/229 36/115/230 43/113/231
f 36/115/232 33/111/233 43/113/234
f 40/116/235 37/117/236 44/118/237
f 37/117/238 38/119/239 44/118/240
f 38/119/241 39/120/242 44/118/243
f 39/120/244 40/116/245 44/118/246
